<?xml version="1.0" encoding="utf-8"?>
<!-- Generator: Adobe Illustrator 22.0.0, SVG Export Plug-In . SVG Version: 6.00 Build 0)  -->
<svg version="1.1" id="Layer_1" xmlns="http://www.w3.org/2000/svg" xmlns:xlink="http://www.w3.org/1999/xlink" x="0px" y="0px"
	 viewBox="0 0 206.1 206.1" style="enable-background:new 0 0 206.1 206.1;" xml:space="preserve">
<style type="text/css">
	.st0{fill:#FFFFFF;}
</style>
<g id="XMLID_444_">
	<path id="XMLID_445_" class="st0" d="M2.5,198.6h40.7c1.4,0,2.5-1.1,2.5-2.5V16.6c0-1.4-1.1-2.5-2.5-2.5H2.5
		c-1.4,0-2.5,1.1-2.5,2.5v179.5C0,197.5,1.1,198.6,2.5,198.6z"/>
	<path id="XMLID_446_" class="st0" d="M124.5,201.5c16.3,0,30.5-6.7,39.4-18.1l1.3,12.9c0.1,1.3,1.2,2.3,2.5,2.3h35.9c0,0,0,0,0,0
		c1.4,0,2.5-1.1,2.5-2.5c0-0.2,0-0.3,0-0.5c-0.5-8.8-1-23.9-1-38.4V7c0-1.4-1.1-2.5-2.5-2.5H162c-1.4,0-2.5,1.1-2.5,2.5v64.3
		c-7.2-7-18.7-10.9-32.4-10.9c-15.5,0-30,6-40.9,17c-13.2,13.2-20,32.2-19.9,54.8C66.3,172.4,90.8,201.5,124.5,201.5z M137.5,164.3
		c-15.5,0-25.2-12.8-25.2-33.4c0-15.9,6.7-34.5,25.5-34.5c11.9,0,19.2,9,21.2,17.9c0.2,2,0.5,4.7,0.5,6.8v17c0,3.6-0.3,6.2-1,8.7
		c0,0,0,0.1,0,0.1C156.3,157.3,147.9,164.3,137.5,164.3z"/>
</g>
</svg>
