<?xml version="1.0" encoding="utf-8"?>
<!-- Generator: Adobe Illustrator 22.0.0, SVG Export Plug-In . SVG Version: 6.00 Build 0)  -->
<svg version="1.1" id="Capa_1" xmlns="http://www.w3.org/2000/svg" xmlns:xlink="http://www.w3.org/1999/xlink" x="0px" y="0px"
	 viewBox="0 0 312.6 312.6" style="enable-background:new 0 0 312.6 312.6;" xml:space="preserve">
<style type="text/css">
	.st0{fill:#FFFFFF;}
</style>
<g>
	<path class="st0" d="M302.6,0H10C4.5,0,0,4.5,0,10v292.6c0,5.5,4.5,10,10,10h292.6c5.5,0,10-4.5,10-10V10
		C312.6,4.5,308.1,0,302.6,0z M148.1,193.3c-9.5,8.3-21.6,12.9-34.1,12.9c-28.1,0-51.2-22.4-51-49.9s24.2-50.1,51-49.8
		c12.5,0.1,24.6,4.5,34,12.8c3.9,3.4,4.3,9.3,0.9,13.2c-3.4,3.9-9.3,4.3-13.2,0.9c-6-5.2-13.7-7.9-21.7-8.1
		c-16.2-0.5-31.9,13.8-32.3,31.2c-0.4,17.2,14.5,31.3,32.3,31.3c8,0,15.7-2.9,21.8-8.3c3.9-3.4,9.8-3,13.2,0.9
		C152.4,184,152,189.9,148.1,193.3z"/>
</g>
</svg>
