<?xml version="1.0" encoding="utf-8"?>
<!-- Generator: Adobe Illustrator 22.0.0, SVG Export Plug-In . SVG Version: 6.00 Build 0)  -->
<svg version="1.1" id="Calque_1" xmlns="http://www.w3.org/2000/svg" xmlns:xlink="http://www.w3.org/1999/xlink" x="0px" y="0px"
	 viewBox="0 0 43.7 38" style="enable-background:new 0 0 43.7 38;" xml:space="preserve">
<style type="text/css">
	.st0{fill:#FFFFFF;}
</style>
<title>freeCodeCamp logo</title>
<g id="Page-1">
	<g id="freeCodeCamp_logo" transform="translate(-4.000000, -6.000000)">
		<g id="freeCodeCamp" transform="translate(4.000000, 6.000000)">
			<path id="path29_1_" class="st0" d="M0.1,17.7c0-4.6,1.6-8.7,4.7-12.2c1.1-1.3,2.1-2,2.7-2c0.2,0,0.5,0,0.6,0.2
				c0.2,0.2,0.3,0.3,0.3,0.6C8.4,4.7,8,5.2,7.2,6c-3.3,3.2-4.9,7.1-4.9,11.8c0,5.2,1.7,9.5,5.1,12.7c0.7,0.6,1,1.2,1,1.6
				c0,0.2-0.1,0.5-0.3,0.6c-0.2,0.2-0.4,0.3-0.6,0.3c-0.8,0-1.9-0.9-3.3-2.8C1.4,26.8,0.1,22.7,0.1,17.7L0.1,17.7L0.1,17.7z"/>
			<path id="path31_1_" class="st0" d="M43.5,18.9c0,4.6-1.6,8.7-4.7,12.2c-1.1,1.3-2.1,2-2.7,2c-0.2,0-0.5,0-0.6-0.2
				s-0.3-0.4-0.3-0.6c0-0.3,0.4-0.9,1.2-1.6c3.3-3.2,4.9-7.1,4.9-11.8c0-5.2-1.7-9.5-5.1-12.7c-0.7-0.6-1-1.2-1-1.6
				c0-0.2,0.1-0.5,0.3-0.6c0.2-0.2,0.4-0.3,0.6-0.3c0.8,0,1.9,0.9,3.3,2.8C42.1,9.8,43.5,14,43.5,18.9L43.5,18.9L43.5,18.9z"/>
			<path id="path37_1_" class="st0" d="M31.7,32.1H11.8c-0.6,0-1.2-0.5-1.2-1.2c0-0.7,0.5-1.2,1.2-1.2h19.9c0.6,0,1.2,0.5,1.2,1.2
				C32.9,31.6,32.4,32.1,31.7,32.1L31.7,32.1z"/>
			<path id="Shape" class="st0" d="M17.6,6c0,0,1.7,1.2,1.7,3.2c0,3.6-4.9,7.6-4.9,11.4c0,4.1,3.1,6.7,6,7.5
				c0.4,0.1,0.6-0.4,0.1-0.5c-1.2-0.3-2.6-1.9-2.6-4.4c0-2.3,2.2-3.2,3.1-4.3c0.9-1.2,0.7-2.6,0.2-3c-0.5-0.4-0.2-1,0.8-0.3
				s1.8,1.9,1.5,3.1c-0.4,1.5,0.1,2.4,0.9,2.5c0.8,0.1,1.7-0.3,1.6-1c-0.1-0.7-0.5-1.5-0.3-1.5c0.6,0,1.8,1.4,1.8,3.6
				S25.6,26,25,26.6c-0.3,0.3,0.1,0.8,0.6,0.6c0.2-0.1,0.7-0.4,1-0.6c1.4-1,3.7-3.1,3.7-7c0-4.1-1.5-5.9-3.1-7.4
				c-1.5-1.5-1.9-1.1-1.5-0.4c1.3,2.3,0.5,3-0.4,3c-1.1,0-1.2-2.6-1.6-4.5c-1-4.4-4.9-5.1-5.6-5.1C17.4,5.2,16.7,5.6,17.6,6L17.6,6z
				"/>
		</g>
	</g>
</g>
</svg>
