<svg id="Layer_1" data-name="Layer 1" xmlns="http://www.w3.org/2000/svg" viewBox="0 0 91.89 91.89"><defs><style>.cls-1{fill:#fff;}</style></defs><title>Git-Icon-White</title><path class="cls-1" d="M90.44,42.5,50.32,2.38a5.92,5.92,0,0,0-8.37,0l-8.33,8.33L44.19,21.28a7,7,0,0,1,8.9,9L63.27,40.43a7,7,0,1,1-4.21,4l-9.5-9.5v25a7.26,7.26,0,0,1,1.86,1.34,7,7,0,1,1-7.65-1.54V34.46a6.83,6.83,0,0,1-2.31-1.54A7,7,0,0,1,40,25.23L29.53,14.81,2,42.31a5.93,5.93,0,0,0,0,8.38L42.14,90.8a5.92,5.92,0,0,0,8.37,0L90.44,50.87A5.92,5.92,0,0,0,90.44,42.5Z" transform="translate(-0.29 -0.65)"/></svg>