<?xml version="1.0" encoding="utf-8"?>
<!-- Generator: Adobe Illustrator 22.0.0, SVG Export Plug-In . SVG Version: 6.00 Build 0)  -->
<svg version="1.1" id="Calque_1" xmlns="http://www.w3.org/2000/svg" xmlns:xlink="http://www.w3.org/1999/xlink" x="0px" y="0px"
	 viewBox="0 0 419.6 118.2" style="enable-background:new 0 0 419.6 118.2;" xml:space="preserve">
<style type="text/css">
	.st0{fill:#FFFFFF;}
</style>
<path class="st0" d="M119.9,46.2L119.9,46.2L116.5,58L119.9,46.2L119.9,46.2z"/>
<path class="st0" d="M137.1,72l-3.7,0L137.1,72z"/>
<path class="st0" d="M136.2,89.7L136.2,89.7L114,89.8L136.2,89.7L136.2,89.7z"/>
<path class="st0" d="M140.8,72l-3.7,0L140.8,72z"/>
<path class="st0" d="M138.1,88.2l3.9-14.7L138.1,88.2L138.1,88.2L138.1,88.2z"/>
<path class="st0" d="M219.6,20.5l-7.2,33.8C212.4,54.3,219.6,20.5,219.6,20.5z"/>
<path class="st0" d="M201.1,20.5l-5.5,25.2L201.1,20.5L201.1,20.5z"/>
<path class="st0" d="M218.4,19H203c-0.9,0-1.7,0.7-1.9,1.5l-5.5,25.2l-5.5,25.2c-0.2,0.8-1,1.5-1.9,1.5h-10.9
	c-10.8,0-9.5-7.4-7.3-17.6c0-0.1,0-0.2,0.1-0.3l0.2-1.3c0-0.1,0-0.2,0-0.2l0.5-2.6l0.5-2.8c0.2-0.8,0.4-2.1,0.6-2.9l2.5-12.1
	l2.5-12.1c0.2-0.8-0.4-1.5-1.2-1.5h-15.8c-0.9,0-1.7,0.7-1.9,1.5l-3.4,16.1l-3.4,16.1c0,0,0,0,0,0l-0.3,1.5
	c-3.9,17.8-2.9,34.8,18.3,35.3c0.3,0,0.6,0,0.6,0h33.3c0.9,0,1.7-0.7,1.9-1.5l7.2-33.8l7.2-33.8C219.8,19.7,219.2,19,218.4,19
	L218.4,19z"/>
<path class="st0" d="M279.6,72.6c0.9,0,1.4,0.7,1.2,1.5l-1.5,7.3"/>
<path class="st0" d="M277.9,88.7l1.5-7.3L277.9,88.7C277.9,88.7,277.9,88.7,277.9,88.7L277.9,88.7z"/>
<path class="st0" d="M276,90.3C276,90.3,276,90.3,276,90.3c-4.5,0-18.1,0.1-28.3,0.1C260.1,90.4,276,90.3,276,90.3L276,90.3z"/>
<path class="st0" d="M238.6,63.2c0-0.8,0.9-2.2,1.7-2.2l-1.9,0C237.5,69.7,238.6,63.2,238.6,63.2L238.6,63.2z"/>
<path class="st0" d="M249.1,90.4c-0.1,0-0.2,0-0.3,0C248.9,90.4,249,90.4,249.1,90.4z"/>
<path class="st0" d="M279.6,72.6c0.9,0,1.4,0.7,1.2,1.5l-1.5,7.3l-0.2,1.2"/>
<path class="st0" d="M256.4,90.4L256.4,90.4L256.4,90.4z"/>
<path class="st0" d="M252.6,90.4h-0.2H252.6z"/>
<path class="st0" d="M251.5,90.4c-0.1,0-0.2,0-0.4,0C251.2,90.4,251.3,90.4,251.5,90.4z"/>
<path class="st0" d="M250.3,90.4H250H250.3z"/>
<path class="st0" d="M252.4,90.4c-0.3,0-0.6,0-0.9,0C251.8,90.4,252.1,90.4,252.4,90.4z"/>
<path class="st0" d="M256.3,90.4c-1.2,0-2.5,0-3.7,0C253.8,90.4,255.1,90.4,256.3,90.4z"/>
<path class="st0" d="M276,90.3L276,90.3c-3.3,0-11.5,0.1-19.6,0.1C264.5,90.3,272.7,90.3,276,90.3z"/>
<path class="st0" d="M277.9,88.7l1.2-6.1L277.9,88.7C277.9,88.7,277.9,88.7,277.9,88.7L277.9,88.7z"/>
<path class="st0" d="M251.1,90.4h-0.8H251.1z"/>
<path class="st0" d="M248.8,90.4h-1.1H248.8z"/>
<path class="st0" d="M250,90.4h-0.9H250z"/>
<path class="st0" d="M25.3,63.4l2.4-10.6L25,64.9l-2.6,12.3l2.3-10.8C24.9,65.6,25.2,64.2,25.3,63.4L25.3,63.4z"/>
<path class="st0" d="M53.9,18.8H37c-0.9,0-1.7,0.7-1.9,1.5l-1.6,7.1l-1.6,7.1c-0.2,0.8,0.4,1.5,1.2,1.5h17c0.9,0,1.7-0.7,1.9-1.5
	l1.5-7.1l1.5-7.1v0C55.3,19.5,54.7,18.8,53.9,18.8L53.9,18.8z"/>
<path class="st0" d="M50.2,42.3L50.2,42.3l-4.9,22.9L50.2,42.3z"/>
<path class="st0" d="M1.2,118.1c0,0,8.5,0.1,13.9,0.1C11,118.2,4.3,118.1,1.2,118.1C1.2,118.1,1.2,118.1,1.2,118.1L1.2,118.1z"/>
<path class="st0" d="M30.1,42.3l-2.4,10.6C27.7,52.8,30.1,42.3,30.1,42.3z"/>
<path class="st0" d="M49,40.8H32c-0.9,0-1.7,0.7-1.9,1.5l-2.4,10.6l-2.4,10.6c-0.2,0.8-0.5,2.2-0.7,3l-2.3,10.8L20.1,88
	c-0.2,0.8-0.5,2.2-0.8,3c0,0-3.2,9.4-8.5,9.3c-0.2,0-0.4,0-0.7,0c-2.6,0-4.6-0.1-4.6-0.1h0c-0.9,0-1.7,0.7-1.9,1.5l-1.8,7.4L0,116.6
	c-0.2,0.8,0.3,1.5,1.2,1.5c3,0,9.8,0.1,13.9,0.1c13.3,0,20.4-7.4,24.9-28.6l5.3-24.4l4.9-22.9C50.4,41.4,49.9,40.8,49,40.8L49,40.8z
	"/>
<path class="st0" d="M290.5,89.5c-0.9,0-1.4-0.7-1.2-1.5L302,28.1"/>
<path class="st0" d="M308.2,88l5.2-25.6L308.2,88z"/>
<path class="st0" d="M289.4,88.8c-0.1-0.4,0-1.4,0.1-2.3l6.1-28.4L289.2,88c-0.2,0.8,0.4,1.5,1.2,1.5h1.6
	C291.1,89.5,289.5,89.2,289.4,88.8L289.4,88.8z"/>
<path class="st0" d="M307.2,89.2c-0.5,0.2-1.5,0.3-2.4,0.3h1.6c0.9,0,1.7-0.7,1.9-1.5l0.3-1.5C308.4,87.3,307.7,89,307.2,89.2
	L307.2,89.2z"/>
<path class="st0" d="M310.8,75.2l2.3-11.3c0,0,0,0,0,0L310.8,75.2L310.8,75.2z"/>
<path class="st0" d="M361.3,32.1L362,35c0.2,0.8-0.3,1.5-1.2,1.5"/>
<path class="st0" d="M308.5,86.5l2.3-11.3L308.5,86.5z"/>
<path class="st0" d="M360.6,29.1l0.7,3L360.6,29.1z"/>
<path class="st0" d="M313.1,63.9c0.2-0.8,0.5-2.2,0.6-3l2.4-11.4l-2.8,12.9L313.1,63.9L313.1,63.9z"/>
<path class="st0" d="M302.2,27.1c-0.2,0.8-0.4,1.8-0.5,2.5l-6.1,28.4l6.4-29.9L302.2,27.1L302.2,27.1z"/>
<path class="st0" d="M362,35l-0.7-2.9l-0.7-3l-0.4-1.5c-1.4-5.4-5.4-8.5-14.2-8.5l-13.7,0l-12.6,0h-14.2c-0.9,0-1.7,0.7-1.9,1.5h0
	l-0.6,3l-0.7,3.5l-0.2,1l-6.4,29.9l-6.1,28.4c-0.2,0.8-0.2,1.9-0.1,2.3c0.1,0.4,1.7,0.8,2.6,0.8h12.8c0.9,0,1.9-0.2,2.4-0.3
	c0.5-0.2,1.2-1.9,1.3-2.7l2.3-11.3l2.3-11.3c0,0,0,0,0,0l0.3-1.5l2.8-12.9l2.4-11.4c0.2-0.8,1-1.5,1.9-1.5l40.3,0
	C361.6,36.5,362.2,35.9,362,35L362,35z"/>
<path class="st0" d="M413.8,8.7c-0.9,0-2.2,0-3.1,0h-12.9c-0.9,0-1.9,0.6-2.4,1.3l-28.5,41.8c-0.5,0.7-1,0.6-1.2-0.2l-2.1-9.2
	c-0.2-0.8-1-1.5-1.9-1.5h-18.3c-0.9,0-1.4,0.7-1.1,1.5l8.2,28.8c0.2,0.8,0.3,2.2,0,3l-3.6,13.9c-0.2,0.8,0.3,1.5,1.2,1.5h18.1
	c0.9,0,1.7-0.7,1.9-1.5l3.6-13.9c0.2-0.8,0.8-2.1,1.3-2.7l46.3-61.5c0.5-0.7,0.2-1.2-0.6-1.2L413.8,8.7L413.8,8.7z"/>
<path class="st0" d="M268.2,44.8L268.2,44.8c-0.1,0.9-1,1.6-1.8,1.6h-23.2c-0.8,0-1.2-0.5-1.1-1.2c0,0,0,0,0-0.1c0,0,0,0,0,0
	c0,0,0-0.1,0-0.1c0,0,0-0.2,0.1-0.4c2.2-5.9,6.7-9.8,15.2-9.8C266.9,34.8,268.8,39.5,268.2,44.8L268.2,44.8z M261.3,17.9
	c-29.8,0-36.9,18.1-40.9,36.4c-4,18.6-3.6,36.1,27.3,36.1h1.1c0.1,0,0.2,0,0.3,0h2c0.1,0,0.2,0,0.4,0c0.3,0,0.6,0,0.9,0h0.2
	c1.2,0,2.5,0,3.7,0h0.1c8.2,0,16.3-0.1,19.6-0.1c0.8,0,1.7-0.7,1.9-1.5l1.3-6.1l0.2-1.2l1.5-7.3c0.2-0.8-0.4-1.5-1.2-1.5h-27.8
	c-11,0-14.3-2.9-13.1-11.6h44.4l0,0c0,0,0,0,0,0c0.7,0,1.4-0.5,1.6-1.1c0-0.1,0.1-0.3,0.1-0.4l0,0C291.5,34.7,289.6,17.9,261.3,17.9
	L261.3,17.9z"/>
<path class="st0" d="M120.3,44.7l-0.4,1.5c0,0,0,0,0,0L116.5,58l-3.3,11.9c-0.2,0.8-1.1,1.5-2,1.5H93.5c-13.5,0-16.7-10.5-13.5-26
	c3.3-15.9,9.7-25.7,22.9-26.7C121,17.3,124.7,30,120.3,44.7L120.3,44.7z M132.5,70.5c0,0,8.4-20.3,10.3-32
	C145.3,22.8,137.5,0,107.1,0C76.9,0,63.8,21.7,58.8,45.4c-5,23.8,1.6,44.7,31.6,44.5l23.7-0.1l22.1-0.1c0.9,0,1.7-0.7,1.9-1.5
	l3.9-14.7c0.2-0.8-0.3-1.5-1.2-1.5l-3.7,0l-3.7,0c-0.7,0-1.1-0.5-1.1-1.1C132.4,70.7,132.4,70.6,132.5,70.5L132.5,70.5z"/>
<path class="st0" d="M281.9,56.9c0,0.6-0.5,1-1,1c-0.6,0-1-0.5-1-1c0-0.6,0.5-1,1-1C281.4,55.9,281.9,56.3,281.9,56.9z"/>
</svg>
