<?xml version="1.0" encoding="utf-8"?>
<!-- Generator: Adobe Illustrator 22.0.0, SVG Export Plug-In . SVG Version: 6.00 Build 0)  -->
<svg version="1.1" id="Capa_1" xmlns="http://www.w3.org/2000/svg" xmlns:xlink="http://www.w3.org/1999/xlink" x="0px" y="0px"
	 viewBox="0 0 512 512" style="enable-background:new 0 0 512 512;" xml:space="preserve">
<style type="text/css">
	.st0{fill:#FFFFFF;}
</style>
<path class="st0" d="M461.6,43.1L312.3,0.4c-2.3-0.7-4.8-0.5-7,0.4l-256,106.7c-4,1.7-6.5,5.5-6.5,9.8v277.3
	c0,5.9,4.7,10.6,10.6,10.7c-5.9,0-10.6,4.8-10.6,10.7c0,4.6,3,8.6,7.3,10.1l256,85.3c1.1,0.4,2.2,0.5,3.4,0.5c1,0,2-0.1,2.9-0.4
	l149.3-42.7c4.6-1.3,7.7-5.5,7.7-10.2V53.3C469.3,48.6,466.2,44.4,461.6,43.1z M58.1,404.2l64-32c3.6-1.8,5.9-5.5,5.9-9.5V136.3
	l192-48v357.9L55,405.4c-0.5-0.1-1-0.1-1.5-0.1C55.1,405.3,56.7,404.9,58.1,404.2z"/>
</svg>
