<?xml version="1.0" encoding="utf-8"?>
<!-- Generator: Adobe Illustrator 22.0.0, SVG Export Plug-In . SVG Version: 6.00 Build 0)  -->
<svg version="1.1" id="Layer_1" xmlns="http://www.w3.org/2000/svg" xmlns:xlink="http://www.w3.org/1999/xlink" x="0px" y="0px"
	 viewBox="0 0 512 512" style="enable-background:new 0 0 512 512;" xml:space="preserve">
<style type="text/css">
	.st0{fill:#FFFFFF;}
	.st1{fill:#054169;}
</style>
<g>
	<g>
		<path class="st0" d="M255.8-0.5c-141.4,0-256,114.6-256,256c0,141.4,114.6,256,256,256s256-114.6,256-256
			C511.8,114.1,397.2-0.5,255.8-0.5z"/>
	</g>
</g>
<g>
	<g>
		<path class="st1" d="M256,0C114.6,0,0,114.6,0,256c0,141.4,114.6,256,256,256s256-114.6,256-256C512,114.6,397.4,0,256,0z
			 M256,100.9c42.7,0,77.4,34.6,77.4,77.4c0,42.7-34.6,77.4-77.4,77.4s-77.4-34.6-77.4-77.4C178.6,135.6,213.3,100.9,256,100.9z
			 M287.9,362.8L287.9,362.8l0,28v3.5h-31.2h-1.5H143.1c0-76.2,41.5-103.4,68.7-127.7c13.2,7.1,28.2,11.1,44.2,11.3
			c16-0.1,31-4.2,44.2-11.3c12.2,10.9,27.2,22.4,40.1,38.6h-12.4v17.7v22.3h-22.3h-17.7V362.8z M373.6,390.8v40h-28v-40h-40v-28h40
			v-40h28v40h40v28H373.6z"/>
	</g>
</g>
</svg>
